<?xml version="1.0" encoding="utf-8"?>
<!-- Generator: Adobe Illustrator 23.0.1, SVG Export Plug-In . SVG Version: 6.00 Build 0)  -->
<svg version="1.1" id="Regular_1_" 
     xmlns="http://www.w3.org/2000/svg" 
     xmlns:xlink="http://www.w3.org/1999/xlink" 
     style="enable-background:new 0 0 900.01 900.01;"
     x="0px" y="0px" viewBox="0 0 900.01 900.01"
     xml:space="preserve">
<style type="text/css">
  .st0{fill:#CCCCCC;}
  .st1{fill:url(#SVGID_1_);}
</style>
<g id="D_1_">
  <g id="left">
    <g>
      <ellipse transform="matrix(0.3827 -0.9239 0.9239 0.3827 65.4731 837.0304)" 
      		   class="st0" cx="659.09" cy="369.52" rx="37.98" ry="37.98"/>
    </g>
  </g>
  <g id="right">
    <g>
      <circle class="st0" cx="773.03" cy="257.21" r="37.98"/>
    </g>
  </g>
</g>
<g id="U_2_">
  <g id="U">
    <g>
      <path class="st0" d="M685.32,468.81c-7.27-4.62-16.35-6.94-27.25-6.94c-10.24,0-19.24,2.31-27,6.92
        c-7.76,4.61-11.64,10.04-11.64,16.3v113.15c0,9.55-3.55,18.12-10.65,25.69c-7.11,7.58-15.44,11.37-25.02,11.37
        c-9.58,0-18.01-3.79-25.27-11.37c-7.27-7.57-10.9-16.13-10.9-25.69V485.58c0-5.92-3.89-11.36-11.64-16.3
        c-7.76-4.94-16.6-7.42-26.51-7.42c-10.57,0-19.65,2.48-27.25,7.43c-7.6,4.95-11.39,10.41-11.39,16.35v112.97
        c0,27.75,11.15,52.03,33.44,72.84c22.29,20.81,48.8,31.22,79.52,31.22c30.38,0,56.73-10.41,79.02-31.22
        c22.29-20.81,33.44-45.09,33.44-72.84V485.16C696.22,478.89,692.58,473.44,685.32,468.81z"/>
    </g>
  </g>
  <g id="U_part">
    <g>
      <ellipse transform="matrix(0.9871 -0.1602 0.1602 0.9871 -68.6924 111.5307)" 
      	       class="st0" cx="657.43" cy="481.84" rx="37.99" ry="37.98"/>
    </g>
  </g>
  <g id="U_part_2">
    <g>
      <circle class="st0" cx="508.81" cy="481.84" r="37.98"/>
    </g>
  </g>
</g>
<g id="R_2_">
  <g id="R_xA0_Image_1_">
    <g>
      <linearGradient id="SVGID_1_" gradientUnits="userSpaceOnUse" x1="347.475" y1="830.5893" x2="347.475" y2="93.5893">
        <stop offset="1.385225e-07" style="stop-color: #319AF3"/>
        <stop offset="1" style="stop-color: #31AFF3"/>
      </linearGradient>
      <path class="st1" d="M93.98,776.59v-636c0-12.66,4.5-23.66,13.5-33c9-9.33,20.5-14,34.5-14h207c164,0,246,71.34,246,214
        c0,104-40.34,171.67-121,203l122,221c3.33,4.67,5,10.67,5,18c0,19.34-10.5,37.67-31.5,55c-21,17.34-43.17,26-66.5,26
        c-23.34,0-40-9.66-50-29l-137-266h-66v241c0,15.34-7.67,27.17-23,35.5c-15.34,8.34-33.67,12.5-55,12.5
        c-21.34,0-39.67-4.16-55-12.5C101.63,803.76,93.98,791.93,93.98,776.59z M249.98,415.59h99c29.33,0,51.66-7.16,67-21.5
        c15.33-14.33,23-38.16,23-71.5c0-33.33-7.67-57.16-23-71.5c-15.34-14.33-37.67-21.5-67-21.5h-99V415.59z"/>
    </g>
  </g>
</g>
<g id="I_1_">
  <g id="top">
    <g>
      <circle class="st0" cx="773.03" cy="481.84" r="37.98"/>
    </g>
  </g>
  <g id="middle">
    <g>
      <circle class="st0" cx="773.03" cy="369.52" r="37.98"/>
    </g>
  </g>
  <g id="bottom">
    <g>
      <circle class="st0" cx="773.03" cy="660.21" r="37.98"/>
    </g>
  </g>
  <g id="rect">
    <g>
      <rect x="735.04" y="478.54" class="st0" width="75.97" height="184.97"/>
    </g>
  </g>
</g>
</svg>